<svg xmlns="http://www.w3.org/2000/svg" xmlns:xlink="http://www.w3.org/1999/xlink" width="370.943" height="59.996" viewBox="0 0 370.943 59.996">
  <defs>
    <clipPath id="clip-path">
      <rect id="長方形_32543" data-name="長方形 32543" width="370.943" height="59.996" fill="none"/>
    </clipPath>
    <clipPath id="clip-path-2">
      <path id="パス_115867" data-name="パス 115867" d="M28.726,2.46a22.6,22.6,0,0,0-9.4,3.952A40.58,40.58,0,0,1,34.816,9.205a38.576,38.576,0,0,0-19.371.76A22.6,22.6,0,0,0,12.7,13.9a31.425,31.425,0,0,1,7.9-1.408,33.032,33.032,0,0,0-9.266,4.381c-.046.115-.092.221-.127.331,12.162-6.5,30.236-7.128,40.741,3.835C39.773,13.852,18.259,15.748,9.9,25.941a22.715,22.715,0,0,0,45.4-1.1c0-.167-.007-.338-.008-.5a25.991,25.991,0,0,0-25.663-21.9c-.305,0-.607.013-.91.025" transform="translate(-9.904 -2.435)" fill="none"/>
    </clipPath>
    <radialGradient id="radial-gradient" cx="0.214" cy="0.192" r="1.021" gradientTransform="translate(-0.002) scale(0.994 1)" gradientUnits="objectBoundingBox">
      <stop offset="0" stop-color="#fff"/>
      <stop offset="0.006" stop-color="#fff"/>
      <stop offset="0.13" stop-color="#e6f2d5"/>
      <stop offset="0.331" stop-color="#c1e097"/>
      <stop offset="0.515" stop-color="#a5d166"/>
      <stop offset="0.676" stop-color="#90c643"/>
      <stop offset="0.808" stop-color="#83c02d"/>
      <stop offset="0.893" stop-color="#7fbe26"/>
      <stop offset="0.989" stop-color="#bfdb8a"/>
      <stop offset="1" stop-color="#bfdb8a"/>
    </radialGradient>
    <clipPath id="clip-path-3">
      <path id="パス_115868" data-name="パス 115868" d="M6.441,17.106a26.3,26.3,0,0,0-.33,4.084,25.985,25.985,0,0,0,51.835,2.656,24.889,24.889,0,1,1-48.7-10.272,28.236,28.236,0,0,0-2.808,3.532" transform="translate(-6.111 -13.574)" fill="none"/>
    </clipPath>
    <radialGradient id="radial-gradient-2" cx="0.308" cy="-0.288" r="1.37" gradientTransform="translate(-0.068) scale(0.648 1)" xlink:href="#radial-gradient"/>
    <clipPath id="clip-path-4">
      <path id="パス_115869" data-name="パス 115869" d="M13.262,5.588c.167-.016.33-.038.5-.054a23.6,23.6,0,0,1,2.066-1.428,25.475,25.475,0,0,0-2.562,1.482" transform="translate(-13.262 -4.106)" fill="none"/>
    </clipPath>
    <radialGradient id="radial-gradient-3" cx="1.631" cy="3.987" r="30.998" gradientTransform="translate(-3.597) scale(0.579 1)" xlink:href="#radial-gradient"/>
    <clipPath id="clip-path-5">
      <path id="パス_115870" data-name="パス 115870" d="M10.666,8.657a26.552,26.552,0,0,0-2.8,4.29c.693-.371,1.4-.725,2.124-1.057a25.235,25.235,0,0,1,2.447-3.982c-.607.246-1.2.491-1.774.749" transform="translate(-7.87 -7.908)" fill="none"/>
    </clipPath>
    <radialGradient id="radial-gradient-4" cx="2.86" cy="-0.069" r="9.143" gradientTransform="translate(0.291) scale(1.102 1)" xlink:href="#radial-gradient"/>
  </defs>
  <g id="グループ_10306" data-name="グループ 10306" transform="translate(-185 -290)">
    <g id="グループ_10305" data-name="グループ 10305" transform="translate(185 290)">
      <g id="グループ_10294" data-name="グループ 10294" transform="translate(0 0)">
        <g id="グループ_10293" data-name="グループ 10293" clip-path="url(#clip-path)">
          <path id="パス_115847" data-name="パス 115847" d="M66.911,20.086a7.724,7.724,0,0,1-.688,3.28,7.243,7.243,0,0,1-1.8,2.462A8.063,8.063,0,0,1,61.811,27.4a8.777,8.777,0,0,1-2.96.49,8.971,8.971,0,0,1-2.91-.467,7.553,7.553,0,0,1-2.463-1.4A7.454,7.454,0,0,1,51.532,23.5a7.753,7.753,0,0,1-.74-3.433,7.874,7.874,0,0,1,.585-3.092,7.382,7.382,0,0,1,1.754-2.51,7.58,7.58,0,0,1,2.571-1.6,9.161,9.161,0,0,1,6.261-.035,7.685,7.685,0,0,1,2.473,1.484,7.154,7.154,0,0,1,1.845,2.6,8.064,8.064,0,0,1,.63,3.177m-2.106.175a7.615,7.615,0,0,0-.541-2.81,5.8,5.8,0,0,0-3.331-3.308,5.907,5.907,0,0,0-2.082-.351,5.984,5.984,0,0,0-2.092.358,5.684,5.684,0,0,0-1.753,1.05,6,6,0,0,0-1.555,2.181,7.13,7.13,0,0,0,.013,5.543,5.978,5.978,0,0,0,1.6,2.125,5.805,5.805,0,0,0,1.688.974,5.874,5.874,0,0,0,2.084.368,5.944,5.944,0,0,0,2.073-.358,5.832,5.832,0,0,0,1.758-1.029,6.169,6.169,0,0,0,2.134-4.745" transform="translate(32.956 7.977)" fill="#7fbe26"/>
          <path id="パス_115848" data-name="パス 115848" d="M71.12,16.119c-.453.094-1.151.3-2.094.6s-2.025.714-3.253,1.225c0,.081-.007.447-.018,1.106s-.02,1.273-.02,1.838c0,.867.012,1.9.038,3.09s.043,1.85.043,1.984H63.834c0-.124,0-.534.018-1.233s.016-1.888.016-3.575c0-.684,0-1.636-.007-2.864s-.016-2.381-.028-3.468h1.939v1.662l.018.013A28.873,28.873,0,0,1,68.56,15.28a18.079,18.079,0,0,1,2.188-.7Z" transform="translate(41.418 9.459)" fill="#7fbe26"/>
          <path id="パス_115849" data-name="パス 115849" d="M72.912,14.2H70.724v-1.9h2.188Zm-.079,13.245H70.848c.008-.114.013-.839.026-2.167s.012-2.425.012-3.291c0-.758,0-1.586,0-2.493s-.013-1.969-.033-3.189h1.985c-.023,1.06-.041,2.045-.058,2.968s-.025,1.743-.025,2.46q0,2.565.041,4.116c.025,1.034.041,1.566.041,1.6" transform="translate(45.889 7.977)" fill="#7fbe26"/>
          <path id="パス_115850" data-name="パス 115850" d="M85.8,14.652c0,.162-.01.889-.023,2.186s-.02,2.526-.02,3.7c0,.793.008,1.6.02,2.424s.023,1.578.023,2.264a5.192,5.192,0,0,1-.734,2.955,5.132,5.132,0,0,1-2.084,1.712,11.1,11.1,0,0,1-2.6.765,20.642,20.642,0,0,1-3.7.28l-.2-1.375c.97-.015,1.838-.063,2.61-.139a9.64,9.64,0,0,0,2.1-.427A3.922,3.922,0,0,0,83.219,27.7a3.436,3.436,0,0,0,.6-1.952h-.6a15.493,15.493,0,0,1-3.049-.315,8.144,8.144,0,0,1-2.679-1,5.368,5.368,0,0,1-1.781-1.7,4.677,4.677,0,0,1-.686-2.6,4.2,4.2,0,0,1,.965-2.727,6.62,6.62,0,0,1,2.582-1.875,9.536,9.536,0,0,1,2.508-.691,23.436,23.436,0,0,1,3.284-.2H85.8Zm-1.946,5.872c0-.531,0-1.2-.007-2s-.018-1.631-.035-2.5H83.49a14,14,0,0,0-2.031.135,9.091,9.091,0,0,0-1.827.5,4.183,4.183,0,0,0-1.951,1.428,3.587,3.587,0,0,0-.668,2.134,3.3,3.3,0,0,0,.663,2.086,4.361,4.361,0,0,0,1.789,1.344,9.268,9.268,0,0,0,1.764.521,10.847,10.847,0,0,0,2.127.2h.458c0-.089.007-.5.021-1.237s.02-1.609.02-2.615" transform="translate(48.678 9.507)" fill="#7fbe26"/>
          <path id="パス_115851" data-name="パス 115851" d="M87.378,14.2H85.192v-1.9h2.186ZM87.3,27.442H85.312c.008-.114.02-.839.026-2.167s.015-2.425.015-3.291c0-.758,0-1.586,0-2.493s-.015-1.969-.038-3.189H87.3c-.021,1.06-.038,2.045-.056,2.968s-.026,1.743-.026,2.46c0,1.71.02,3.08.045,4.116s.038,1.566.038,1.6" transform="translate(55.276 7.977)" fill="#7fbe26"/>
          <path id="パス_115852" data-name="パス 115852" d="M100.53,25.976H98.546q.01-.307.026-2.031t.013-2.13V18.5a2.744,2.744,0,0,0-.546-1.814,2.321,2.321,0,0,0-1.761-.549,6.064,6.064,0,0,0-1.875.378,16.98,16.98,0,0,0-2.261.96c0,.079-.007.519-.015,1.316s-.02,1.527-.02,2.185c0,.854.008,1.89.035,3.1s.045,1.847.045,1.9H90.205c0-.048,0-.5.016-1.347s.02-2.109.02-3.779c0-.77,0-1.677,0-2.709s-.016-2.135-.033-3.3h1.939v1.256l.016.025a17.887,17.887,0,0,1,2.9-1.217,6.99,6.99,0,0,1,1.927-.346,3.615,3.615,0,0,1,2.547.887,3.135,3.135,0,0,1,.963,2.425c0,.925-.01,1.721-.021,2.392s-.021,1.217-.021,1.632c0,.671.016,1.505.043,2.506s.036,1.53.036,1.578" transform="translate(58.529 9.443)" fill="#7fbe26"/>
          <path id="パス_115853" data-name="パス 115853" d="M109.267,19.636c0,1.814-.01,3.294-.021,4.435s-.018,1.754-.018,1.842c-.086.008-.473.038-1.157.087s-1.578.074-2.666.074a13.129,13.129,0,0,1-2.053-.163,8.09,8.09,0,0,1-1.784-.475,4.251,4.251,0,0,1-1.609-1.106,2.488,2.488,0,0,1-.615-1.692,2.521,2.521,0,0,1,.729-1.809,5.223,5.223,0,0,1,2.017-1.235,12.517,12.517,0,0,1,2.158-.533,29.857,29.857,0,0,1,3.077-.359,2.71,2.71,0,0,0-.485-1.4,2.519,2.519,0,0,0-1.207-.833,5.666,5.666,0,0,0-1.217-.277,12.752,12.752,0,0,0-1.561-.081c-.374,0-.689.007-.951.02s-.613.036-1.062.056l.2-1.456.74-.046c.374-.023.876-.035,1.517-.035a11.546,11.546,0,0,1,2.622.27,4.782,4.782,0,0,1,1.914.871,3.583,3.583,0,0,1,1.068,1.411,6.3,6.3,0,0,1,.366,2.43m-1.944,2.633v-.948c0-.383-.007-.821-.016-1.321-.359.016-1,.077-1.909.193a11.474,11.474,0,0,0-2.3.49,3.609,3.609,0,0,0-1.23.694,1.441,1.441,0,0,0-.542,1.144,1.619,1.619,0,0,0,.46,1.205,2.973,2.973,0,0,0,1.258.7,7.216,7.216,0,0,0,1.345.27,14.689,14.689,0,0,0,1.563.081c.167,0,.371,0,.608-.008s.495-.018.762-.023V22.269Z" transform="translate(64.458 9.507)" fill="#7fbe26"/>
          <path id="パス_115854" data-name="パス 115854" d="M111.046,27.824h-1.985c.008-.087.013-1.161.028-3.215s.013-3.763.013-5.12c0-.872,0-1.97,0-3.306s-.015-2.823-.036-4.478h1.985c-.015,1.128-.023,2.432-.03,3.923s-.01,2.734-.01,3.751c0,2.224.007,4.163.016,5.829s.023,2.536.023,2.617" transform="translate(70.763 7.595)" fill="#7fbe26"/>
          <path id="パス_115855" data-name="パス 115855" d="M129.758,27.282c-.074,0-.623,0-1.649-.018s-2.3-.021-3.814-.021c-1.052,0-2.017.007-2.887.021s-1.616.018-2.224.018c.026-.429.046-1.349.061-2.773s.021-2.892.021-4.411c0-.829,0-1.934-.013-3.3s-.031-2.791-.069-4.256c.592,0,1.326.007,2.208.02s1.791.021,2.726.021q2.374,0,3.867-.021c.993-.013,1.532-.02,1.614-.02v1.537c-.082,0-.6-.007-1.555-.02s-2.142-.02-3.558-.02h-3.232c0,.843-.01,1.685-.021,2.524s-.021,1.631-.021,2.378h2.673q2.177,0,3.893-.02c1.141-.015,1.748-.02,1.822-.02v1.538c-.064,0-.749-.007-2.04-.021s-2.48-.02-3.548-.02h-2.8c0,1.4.008,2.506.013,3.326s.02,1.509.03,2.064c.486.012,1.077.023,1.768.03s1.438.008,2.239.008q1.843,0,3.1-.02c.838-.013,1.306-.018,1.4-.018Z" transform="translate(77.332 8.136)" fill="#7fbe26"/>
          <path id="パス_115856" data-name="パス 115856" d="M136.3,22.681a2.465,2.465,0,0,1-.452,1.453,3.447,3.447,0,0,1-1.171,1.04,6.47,6.47,0,0,1-1.806.63,11.464,11.464,0,0,1-2.307.216c-.412,0-.831-.02-1.266-.056s-.686-.059-.744-.068l-.074-1.458c.074.007.363.033.862.066s1,.058,1.5.058c.294,0,.666-.021,1.121-.068a4.265,4.265,0,0,0,1.131-.239,2.247,2.247,0,0,0,.92-.589,1.246,1.246,0,0,0,.3-.843,1.041,1.041,0,0,0-.254-.729,3.2,3.2,0,0,0-.724-.547,9.174,9.174,0,0,0-1.362-.632,14.224,14.224,0,0,1-1.446-.643,3.8,3.8,0,0,1-1.279-1.067,2.41,2.41,0,0,1-.439-1.436,2.34,2.34,0,0,1,.5-1.463,3.638,3.638,0,0,1,1.359-1.047,5.269,5.269,0,0,1,1.627-.467,13.136,13.136,0,0,1,1.731-.119c.508,0,.923.008,1.25.021s.51.02.562.02l.135,1.42c-.058,0-.31-.015-.76-.04s-.943-.043-1.479-.043a6.239,6.239,0,0,0-1.085.092,3.676,3.676,0,0,0-.872.257,1.758,1.758,0,0,0-.758.6,1.232,1.232,0,0,0-.232.676,1.037,1.037,0,0,0,.326.762,3.043,3.043,0,0,0,.755.539c.335.175.8.383,1.385.627a12.746,12.746,0,0,1,1.275.584,4.243,4.243,0,0,1,1.319,1.077,2.292,2.292,0,0,1,.453,1.41" transform="translate(83.365 9.522)" fill="#7fbe26"/>
          <path id="パス_115857" data-name="パス 115857" d="M143.74,25.55l-.231,1.375a3.692,3.692,0,0,1-.427.028c-.226.008-.422.012-.589.012a6.558,6.558,0,0,1-3.853-.94,3.325,3.325,0,0,1-1.3-2.89c0-.815.007-1.69.02-2.622s.02-2.089.02-3.469h-2.1v-1.3h2.19V13.154h1.817v2.592h4.462v1.3h-4.462q0,.23-.02,1.377c-.012.768-.017,1.329-.017,1.7v2.735a2.374,2.374,0,0,0,.869,2.064,4.577,4.577,0,0,0,2.689.635h.94Z" transform="translate(87.77 8.535)" fill="#7fbe26"/>
          <path id="パス_115858" data-name="パス 115858" d="M152.4,19.636q0,2.721-.02,4.435t-.021,1.842c-.084.008-.467.038-1.156.087s-1.58.074-2.666.074a13.093,13.093,0,0,1-2.051-.163,7.96,7.96,0,0,1-1.781-.475,4.231,4.231,0,0,1-1.614-1.106,2.489,2.489,0,0,1-.615-1.692,2.528,2.528,0,0,1,.729-1.809,5.225,5.225,0,0,1,2.02-1.235,12.532,12.532,0,0,1,2.157-.533,29.877,29.877,0,0,1,3.075-.359,2.7,2.7,0,0,0-.485-1.4,2.505,2.505,0,0,0-1.205-.833,5.72,5.72,0,0,0-1.215-.277,12.809,12.809,0,0,0-1.565-.081c-.371,0-.689.007-.951.02s-.612.036-1.06.056l.2-1.456.744-.046c.364-.023.872-.035,1.512-.035a11.556,11.556,0,0,1,2.622.27,4.761,4.761,0,0,1,1.914.871,3.61,3.61,0,0,1,1.073,1.411,6.41,6.41,0,0,1,.361,2.43m-1.944,2.633v-.948c0-.383,0-.821-.015-1.321-.361.016-1,.077-1.909.193a11.441,11.441,0,0,0-2.3.49,3.68,3.68,0,0,0-1.232.694,1.443,1.443,0,0,0-.539,1.144,1.62,1.62,0,0,0,.462,1.205,2.91,2.91,0,0,0,1.255.7,7.289,7.289,0,0,0,1.352.27,14.6,14.6,0,0,0,1.558.081c.165,0,.369,0,.607-.008s.495-.018.762-.023V22.269Z" transform="translate(92.442 9.507)" fill="#7fbe26"/>
          <path id="パス_115859" data-name="パス 115859" d="M159.578,25.55l-.228,1.375a3.8,3.8,0,0,1-.427.028c-.228.008-.425.012-.589.012a6.555,6.555,0,0,1-3.853-.94,3.325,3.325,0,0,1-1.306-2.89c0-.815.008-1.69.023-2.622s.018-2.089.018-3.469h-2.106v-1.3H153.3V13.154h1.82v2.592h4.458v1.3h-4.458c0,.153,0,.612-.018,1.377s-.02,1.329-.02,1.7v2.735a2.375,2.375,0,0,0,.871,2.064,4.584,4.584,0,0,0,2.689.635h.937Z" transform="translate(98.047 8.535)" fill="#7fbe26"/>
          <path id="パス_115860" data-name="パス 115860" d="M169.257,19.981h-8.976a4.391,4.391,0,0,0,.557,2.145,4.27,4.27,0,0,0,1.67,1.618,5.808,5.808,0,0,0,1.637.61,10.193,10.193,0,0,0,2.2.2c.47,0,.9-.008,1.3-.035l.724-.045-.224,1.456c-.069.008-.285.028-.661.048s-.81.033-1.314.033a11.737,11.737,0,0,1-3.456-.455A6.831,6.831,0,0,1,160.3,24.3a5.8,5.8,0,0,1-1.375-1.718,4.83,4.83,0,0,1-.562-2.322A5.852,5.852,0,0,1,158.785,18a6.028,6.028,0,0,1,1.27-1.881,4.879,4.879,0,0,1,1.822-1.154,6.429,6.429,0,0,1,2.256-.407,6.353,6.353,0,0,1,2.056.305,4.255,4.255,0,0,1,1.553.933,4.611,4.611,0,0,1,1.12,1.73,7.125,7.125,0,0,1,.4,2.458m-1.942-1.215a3.467,3.467,0,0,0-1.05-2.14,3.173,3.173,0,0,0-2.231-.775,3.472,3.472,0,0,0-2.32.786,4.105,4.105,0,0,0-1.283,2.129Z" transform="translate(102.753 9.444)" fill="#7fbe26"/>
          <path id="パス_115861" data-name="パス 115861" d="M184.534,26c-.008.066-.031.247-.071.551s-.069.632-.1.989h-.439a19.741,19.741,0,0,1-5.4-.678,10.316,10.316,0,0,1-3.886-1.964,6.572,6.572,0,0,1-1.674-2.137,6.266,6.266,0,0,1-.617-2.841,5.608,5.608,0,0,1,.61-2.612,7.085,7.085,0,0,1,1.591-2.064,10.3,10.3,0,0,1,3.845-2.025,17.281,17.281,0,0,1,5.164-.75h.564c0,.134.021.345.048.636s.051.6.086.945h-.424a17.876,17.876,0,0,0-3.232.3,10.7,10.7,0,0,0-2.881.909,6.267,6.267,0,0,0-2.417,2.031,4.625,4.625,0,0,0-.849,2.669,4.941,4.941,0,0,0,.765,2.7,5.775,5.775,0,0,0,2.407,2.043,10.863,10.863,0,0,0,3.014.989,17.8,17.8,0,0,0,3.314.312h.234c.109,0,.226,0,.351-.012" transform="translate(111.823 8.088)" fill="#7fbe26"/>
          <path id="パス_115862" data-name="パス 115862" d="M194.027,20.409a5.928,5.928,0,0,1-.516,2.44,5.5,5.5,0,0,1-1.487,1.99A5.962,5.962,0,0,1,190.2,25.9a6.629,6.629,0,0,1-2.272.364,6.874,6.874,0,0,1-2.242-.358,5.788,5.788,0,0,1-1.87-1.052,5.428,5.428,0,0,1-1.462-1.98,6.129,6.129,0,0,1-.514-2.483,5.946,5.946,0,0,1,.44-2.328,5.344,5.344,0,0,1,1.377-1.911,5.844,5.844,0,0,1,1.946-1.181,6.594,6.594,0,0,1,2.34-.414,6.86,6.86,0,0,1,2.346.381,5.433,5.433,0,0,1,1.873,1.136,5.7,5.7,0,0,1,1.41,1.954,6.062,6.062,0,0,1,.458,2.384m-1.984.074a5.662,5.662,0,0,0-.379-2.021,4.092,4.092,0,0,0-1.182-1.657,3.377,3.377,0,0,0-1.153-.646,4.3,4.3,0,0,0-1.39-.229,4.138,4.138,0,0,0-1.5.247,3.759,3.759,0,0,0-1.2.762,4.091,4.091,0,0,0-1.039,1.524,5,5,0,0,0-.381,1.926,5.39,5.39,0,0,0,.388,2.071,3.931,3.931,0,0,0,1.248,1.627,3.417,3.417,0,0,0,1.12.592,4.44,4.44,0,0,0,1.35.2,4.309,4.309,0,0,0,1.468-.241,3.468,3.468,0,0,0,1.189-.709,4.217,4.217,0,0,0,1.088-1.545,4.954,4.954,0,0,0,.373-1.9" transform="translate(117.983 9.443)" fill="#7fbe26"/>
          <rect id="長方形_32541" data-name="長方形 32541" width="2.472" height="2.348" transform="translate(316.721 33.071)" fill="#7fbe26"/>
          <path id="パス_115863" data-name="パス 115863" d="M200.7,20.42v.089l-3.232,5.441-1.3-.519q.111-.188.993-1.9c.589-1.148,1.2-2.419,1.814-3.817Z" transform="translate(127.281 12.791)" fill="#7fbe26"/>
          <path id="パス_115864" data-name="パス 115864" d="M204.171,27.824h-1.987c.008-.087.015-1.161.028-3.215s.015-3.763.015-5.12c0-.872,0-1.97-.008-3.306s-.013-2.823-.035-4.478h1.987c-.015,1.128-.03,2.432-.035,3.923s-.008,2.734-.008,3.751c0,2.224.008,4.163.018,5.829s.025,2.536.025,2.617" transform="translate(131.185 7.595)" fill="#7fbe26"/>
          <path id="パス_115865" data-name="パス 115865" d="M214.609,25.55l-.219,1.375a4.03,4.03,0,0,1-.43.028c-.226.008-.425.012-.59.012a6.548,6.548,0,0,1-3.853-.94,3.328,3.328,0,0,1-1.3-2.89c0-.815,0-1.69.023-2.622s.016-2.089.016-3.469h-2.1v-1.3h2.183V13.154h1.824v2.592h4.452v1.3h-4.452c0,.153-.01.612-.02,1.377s-.023,1.329-.023,1.7v2.735a2.38,2.38,0,0,0,.872,2.064,4.592,4.592,0,0,0,2.693.635h.93Z" transform="translate(133.759 8.535)" fill="#7fbe26"/>
          <path id="パス_115866" data-name="パス 115866" d="M224.171,27.979c-.049,0-.206,0-.472,0l-.636,0a29.027,29.027,0,0,1-3.687-.181,10.171,10.171,0,0,1-2.6-.719,5.857,5.857,0,0,1-2.518-1.866,4.243,4.243,0,0,1-.857-2.589,4.829,4.829,0,0,1,.955-2.96,6.218,6.218,0,0,1,2.763-2.018,11,11,0,0,1,2.425-.661,16.694,16.694,0,0,1,2.686-.224l-.045-5.064h1.987q0,.218-.018,3.073c-.017,1.9-.018,3.832-.018,5.787,0,1.542,0,2.942.012,4.186s.02,2.323.025,3.227m-1.942-7.72V18.226a14.085,14.085,0,0,0-2.346.186,9.127,9.127,0,0,0-1.885.5,4.329,4.329,0,0,0-1.931,1.449,3.645,3.645,0,0,0-.688,2.2,3,3,0,0,0,.661,1.949,4.6,4.6,0,0,0,1.636,1.275,8.037,8.037,0,0,0,1.934.613,12.278,12.278,0,0,0,2.256.2h.318c0-.066.01-.613.025-1.644s.02-2.6.02-4.706" transform="translate(138.462 7.595)" fill="#7fbe26"/>
          <rect id="長方形_32542" data-name="長方形 32542" width="2.473" height="2.348" transform="translate(368.47 33.071)" fill="#7fbe26"/>
        </g>
      </g>
      <g id="グループ_10296" data-name="グループ 10296" transform="translate(16.33 4.015)">
        <g id="グループ_10295" data-name="グループ 10295" clip-path="url(#clip-path-2)">
          <rect id="長方形_32544" data-name="長方形 32544" width="45.403" height="45.117" transform="translate(0 0)" fill="url(#radial-gradient)"/>
        </g>
      </g>
      <g id="グループ_10298" data-name="グループ 10298" transform="translate(10.076 22.381)">
        <g id="グループ_10297" data-name="グループ 10297" clip-path="url(#clip-path-3)">
          <rect id="長方形_32545" data-name="長方形 32545" width="51.835" height="33.602" transform="translate(0 0)" fill="url(#radial-gradient-2)"/>
        </g>
      </g>
      <g id="グループ_10300" data-name="グループ 10300" transform="translate(21.867 6.77)">
        <g id="グループ_10299" data-name="グループ 10299" clip-path="url(#clip-path-4)">
          <rect id="長方形_32546" data-name="長方形 32546" width="2.562" height="1.482" transform="translate(0 0)" fill="url(#radial-gradient-3)"/>
        </g>
      </g>
      <g id="グループ_10302" data-name="グループ 10302" transform="translate(12.976 13.039)">
        <g id="グループ_10301" data-name="グループ 10301" clip-path="url(#clip-path-5)">
          <rect id="長方形_32547" data-name="長方形 32547" width="4.571" height="5.039" transform="translate(0 0)" fill="url(#radial-gradient-4)"/>
        </g>
      </g>
      <g id="グループ_10304" data-name="グループ 10304" transform="translate(0 0)">
        <g id="グループ_10303" data-name="グループ 10303" clip-path="url(#clip-path)">
          <path id="パス_115871" data-name="パス 115871" d="M33.556,0A29.925,29.925,0,0,0,11.134,10.076,42.441,42.441,0,0,1,15.279,8.94,27.883,27.883,0,1,1,5.664,30c0-.066,0-.134.007-.2a38.637,38.637,0,0,0-1.812,4.425A30,30,0,1,0,33.556,0" transform="translate(2.504 0)" fill="#7fbe26"/>
          <path id="パス_115872" data-name="パス 115872" d="M9.37,9.452c-1.276.706-2.439,1.421-3.487,2.125a29.65,29.65,0,0,0-1.548,4.3,36.487,36.487,0,0,1,2.945-2.19A28,28,0,0,1,9.37,9.452" transform="translate(2.812 6.133)" fill="#7fbe26"/>
          <path id="パス_115873" data-name="パス 115873" d="M7.146,13.35A22.142,22.142,0,0,0,0,23.03,35.056,35.056,0,0,0,3.527,37.7a100.726,100.726,0,0,1,2.836-12.14A29.95,29.95,0,0,1,7.146,13.35" transform="translate(0 8.662)" fill="#d0e4aa"/>
          <path id="パス_115874" data-name="パス 115874" d="M9.759,10.965c-1,.546-1.967,1.129-2.885,1.743a27.794,27.794,0,0,0-1.916,9.975A32.293,32.293,0,0,1,7.187,18.8a25.907,25.907,0,0,1,2.572-7.834" transform="translate(3.217 7.115)" fill="#d0e4aa"/>
          <path id="パス_115875" data-name="パス 115875" d="M9.9,10.931a24.608,24.608,0,0,0-1.885,5.36,27.975,27.975,0,0,1,4.539-3.932,23.141,23.141,0,0,1,1.37-2.973A34.043,34.043,0,0,0,9.9,10.931" transform="translate(5.2 6.09)" fill="#d0e4aa"/>
          <path id="パス_115876" data-name="パス 115876" d="M12.138,9.94a23.163,23.163,0,0,0-1.37,2.975,33.078,33.078,0,0,1,9.266-4.383,31.5,31.5,0,0,0-7.9,1.408" transform="translate(6.987 5.536)" fill="#add26a"/>
          <path id="パス_115877" data-name="パス 115877" d="M8.882,11.382A25.907,25.907,0,0,0,6.31,19.215a28.234,28.234,0,0,1,2.811-3.532,24.583,24.583,0,0,1,1.885-5.36c-.727.333-1.433.686-2.124,1.059" transform="translate(4.094 6.698)" fill="#a6ce5f"/>
          <path id="パス_115878" data-name="パス 115878" d="M7.7,12.022a36.2,36.2,0,0,0-2.945,2.19,30.035,30.035,0,0,0-.783,12.211A38.814,38.814,0,0,1,5.789,22,27.829,27.829,0,0,1,7.7,12.022" transform="translate(2.386 7.8)" fill="#a4ce5d"/>
          <path id="パス_115879" data-name="パス 115879" d="M7.388,12.337c1.116-.618,2.32-1.225,3.59-1.8a26.261,26.261,0,0,1,6.1-5.535,41.312,41.312,0,0,0-4.083.688,27.9,27.9,0,0,0-5.6,6.645" transform="translate(4.794 3.247)" fill="#d0e4aa"/>
          <path id="パス_115880" data-name="パス 115880" d="M6.768,8.376C4.9,9.932,2.407,15.535,1.787,18.65a25.631,25.631,0,0,1,5.748-4.905A30.017,30.017,0,0,1,12.48,6.112C9.41,7.123,7.4,8.165,6.768,8.376" transform="translate(1.159 3.966)" fill="#d0e4aa"/>
          <path id="パス_115881" data-name="パス 115881" d="M10.642,9.894A45.51,45.51,0,0,1,14.965,8.4a22.88,22.88,0,0,1,3.883-3.553c-1.172.021-2.307.094-3.392.206a25.121,25.121,0,0,0-4.815,4.841" transform="translate(6.905 3.145)" fill="#d0e4aa"/>
          <path id="パス_115882" data-name="パス 115882" d="M13.264,8.4a38.574,38.574,0,0,1,19.371-.76A40.58,40.58,0,0,0,17.145,4.85,23,23,0,0,0,13.264,8.4" transform="translate(8.606 3.142)" fill="#add26a"/>
          <path id="パス_115883" data-name="パス 115883" d="M16.155,4.973c-.165.016-.328.038-.495.053a26.235,26.235,0,0,0-6.1,5.537c.574-.259,1.171-.5,1.776-.749a25.074,25.074,0,0,1,4.815-4.841" transform="translate(6.206 3.227)" fill="#a6ce5f"/>
          <path id="パス_115884" data-name="パス 115884" d="M14.361,5.422A41.959,41.959,0,0,0,10.216,6.56a30.011,30.011,0,0,0-4.943,7.632c1.047-.7,2.211-1.42,3.486-2.125a27.971,27.971,0,0,1,5.6-6.645" transform="translate(3.421 3.518)" fill="#a4ce5d"/>
        </g>
      </g>
    </g>
  </g>
</svg>
